<?xml version="1.0" encoding="UTF-8" standalone="no"?><svg height="660" viewBox="-300 -300 600 660" width="600" xmlns="http://www.w3.org/2000/svg" xmlns:xlink="http://www.w3.org/1999/xlink"><radialGradient id="a" cx="-80" cy="-80" gradientUnits="userSpaceOnUse" r="405"><stop offset="0" stop-color="#fff" stop-opacity=".31"/><stop offset=".19" stop-color="#fff" stop-opacity=".25"/><stop offset=".6" stop-color="#6b6b6b" stop-opacity=".125"/><stop offset="1" stop-opacity=".125"/></radialGradient><path d="m-298.5-298.50003h597v258.5433c0 286.24794-298.5 398.45673-298.5 398.45673s-298.5-112.20879-298.5-398.45673z" fill="#2b5df2"/><g transform="translate(-300.00008 -300.00006)"><g id="b" stroke="#000" stroke-width="1.093317" transform="matrix(1.8299232 0 0 1.8286688 83.347575 18.55494)"><path d="m58.4045 30.002563c10.623589.254887 17.913809 18.078823-4.381231 26.779783 7.368673-14.435091-6.304863-9.001593-8.107633 1.487765h-5.281032c2.918357-21.305635 10.964057-28.430837 17.769896-28.267548zm-28.670445 32.879624c-2.689943 6.351212-6.01068 8.985609-9.238913 12.10643 3.618431.01653 7.22029-.678341 10.95801-3.813952.06366 9.674934 1.472102 12.982213 4.833195 16.232778 3.322964-3.148966 4.844408-6.547148 4.833199-16.232778 3.737717 3.135614 7.339689 3.830473 10.95812 3.813952-3.227999-3.120593-6.549187-5.756246-9.239024-12.10643zm6.552292-60.4961189c-10.503711 11.1508859-14.159534 23.8009959-6.200019 40.0840649 2.303855 4.713079 3.408414 10.026686 3.100009 15.799979h6.20002c-.308405-5.773293.796154-11.0869 3.100009-15.799979 7.959518-16.283067 4.303695-28.933179-6.200019-40.0840649zm-22.118147 27.6164959c-10.6235893.254887-17.9138081 18.078824 4.38123 26.779783-7.368672-14.435091 6.304863-9.001593 8.107633 1.487765h5.281032c-2.918357-21.305636-10.964056-28.430837-17.769895-28.267548z" fill="#fcef3c" fill-rule="evenodd" stroke="#000" stroke-width="1.093317"/><path d="m21.701165 58.195878h29.170365v4.760697h-29.170365z" fill="#fcef3c" stroke="#000" stroke-width="1.093317"/></g><path d="m62.632435 8.3494832c-4.922389 11.6142628-10.997803 16.4312708-16.905222 22.1382198 6.621451.03023 13.211367-1.239829 20.051108-6.973822.116492 17.69225 2.694326 23.739042 8.844868 29.683249 6.080769-5.758415 8.865381-11.971439 8.844868-29.683249 6.839736 5.733999 13.429655 7.004033 20.051113 6.973822-5.906997-5.706532-11.983032-10.525837-16.905227-22.1382198zm150.251255 0c-4.92239 11.6142628-10.99781 16.4312708-16.90523 22.1382198 6.62145.03023 13.21136-1.239829 20.05111-6.973822.11648 17.69225 2.69432 23.739042 8.84487 29.683249 6.08077-5.758415 8.86537-11.971439 8.84487-29.683249 6.83973 5.733999 13.42966 7.004033 20.05111 6.973822-5.90699-5.706532-11.98304-10.525837-16.90523-22.1382198zm150.25125 0c-4.92239 11.6142628-10.99781 16.4312708-16.90523 22.1382198 6.62145.03023 13.21136-1.239829 20.05111-6.973822.11648 17.69225 2.69432 23.739042 8.84487 29.683249 6.08077-5.758415 8.86537-11.971439 8.84487-29.683249 6.83973 5.733999 13.42966 7.004033 20.05111 6.973822-5.90699-5.706532-11.98304-10.525837-16.90523-22.1382198zm150.25125 0c-4.92239 11.6142628-10.99781 16.4312708-16.90523 22.1382198 6.62145.03023 13.21136-1.239829 20.05111-6.973822.11648 17.69225 2.69432 23.739042 8.84487 29.683249 6.08077-5.758415 8.86537-11.971439 8.84487-29.683249 6.83973 5.733999 13.42966 7.004033 20.05111 6.973822-5.90699-5.706532-11.98304-10.525837-16.90523-22.1382198zm-512.3861135 16.2031338v100.559993h4.1710373c-.5643575-10.55744 1.4557153-20.2743 5.6715932-28.892959 14.177825-28.984197 8.212021-51.673549-9.8426305-71.667034zm597.9999735 0c-18.05464 19.993485-24.02046 42.682833-9.84263 71.667034 4.21587 8.618659 6.23595 18.335519 5.6716 28.892959h4.17103zm-559.028556 48.867623c-12.454162-.298603-27.176896 12.731406-32.5172655 51.69237h9.6645985c3.298931-19.18157 28.319461-29.118072 14.835355-2.72107 40.798211-15.91117 27.457665-48.505197 8.017312-48.9713zm520.057136 0c-19.44034.466104-32.78088 33.06013 8.01732 48.9713-13.4841-26.397 11.53641-16.4605 14.83535 2.72107h9.6646c-5.34037-38.960964-20.0631-51.990972-32.51727-51.69237zm-559.0285535 60.1255v43.32378c5.031719-5.40623 7.3610836-11.98805 7.342356-28.15937 6.8397355 5.734 13.4296555 7.00403 20.0511075 6.97382-5.906991-5.70652-11.983027-10.52584-16.905222-22.13823zm587.5117335 0c-4.92239 11.61428-10.99781 16.43129-16.90523 22.13823 6.62146.0303 13.21137-1.23983 20.05111-6.97382.10644 16.16634 2.27792 22.60762 7.34236 28.13394v-43.29835zm-587.2104485 141.73c.9556419 25.24321 4.2422626 49.08631 9.4337435 71.56726.03697-.0764.07029-.15453.107602-.23083 14.099583-28.82424 8.280683-51.42359-9.5413455-71.33643zm597.3974085 0c-17.82202 19.91284-23.64093 42.51219-9.54135 71.33643.0374.0763.0706.15438.1076.23083 5.19148-22.48095 8.4781-46.32405 9.43375-71.56726zm-558.727276 48.53702c-9.689388-.23232-20.749548 7.60894-27.698661 29.44655 1.660068 6.64552 3.493268 13.16525 5.473997 19.56974 4.987102-17.36478 27.047147-25.18067 14.207352-.045 40.798211-15.91118 27.457665-48.50519 8.017312-48.9713zm520.057136 0c-19.44034.46611-32.78088 33.06012 8.01732 48.9713-12.83979-25.13568 9.22024-17.31978 14.20735.045 1.98073-6.40449 3.81393-12.92422 5.47399-19.56974-6.94911-21.83761-18.00926-29.67887-27.69866-29.44655zm-485.405441 74.69523c-17.366437 18.42381-24.4978 39.08552-14.970345 64.86338 6.552443 10.38157 13.477883 20.30965 20.686935 29.79085.506024-7.67318 2.436409-14.82798 5.628553-21.35379 14.565318-29.77633 7.875847-52.90917-11.345143-73.30044zm450.753751 0c-19.22098 20.39127-25.91045 43.52411-11.34514 73.30044 3.19214 6.52581 5.12252 13.68061 5.62855 21.35379 7.20905-9.4812 14.1345-19.40928 20.68693-29.79085 9.52746-25.77786 2.3961-46.43957-14.97034-64.86338zm-410.27982 50.50103c-12.03167-.28848-26.178881 11.86753-31.94013 47.82105 1.009124 1.29817 2.022972 2.59019 3.042197 3.87132h6.045265c3.298931-19.18158 28.319458-29.11807 14.835348-2.72107 40.79822-15.91117 27.45767-48.5052 8.01732-48.9713zm369.80589 0c-19.44035.4661-32.78089 33.06013 8.01732 48.9713-13.4841-26.397 11.53641-16.4605 14.83534 2.72107h6.04527c1.01923-1.28113 2.03307-2.57315 3.0422-3.87132-5.76126-35.95352-19.90846-48.10953-31.94013-47.82105zm-335.1542 74.69522c-8.05536 8.54582-13.89977 17.57494-16.91108 27.37103 11.40148 10.68696 22.93531 20.51707 34.34454 29.51502 5.44743-22.12739-1.89603-40.40263-17.43346-56.88605zm150.25125 0c-19.22098 20.39128-25.91044 43.52411-11.34514 73.30045 4.21587 8.61866 6.23595 18.33552 5.6716 28.89295h11.34709c-.56436-10.55743 1.45572-20.27429 5.6716-28.89295 14.5653-29.77634 7.87585-52.90917-11.34515-73.30045zm150.25125 0c-15.53741 16.48342-22.88088 34.75866-17.43345 56.88605 11.40889-8.99768 22.94144-18.82844 34.34259-29.51502-3.01135-9.79597-8.85386-18.8253-16.90914-27.37103zm-260.02857 50.50104c-5.97411-.14323-12.46816 2.79264-18.20035 10.17415 11.02719 8.50161 21.88968 16.21933 32.35097 23.19066 10.96225-15.58632.0317-33.02478-14.15062-33.36481zm69.30339 0c-19.44034.4661-32.78088 33.06012 8.01732 48.9713-13.4841-26.397 11.53641-16.46049 14.83535 2.72106h9.6646c-5.34037-38.96095-20.0631-51.99097-32.51727-51.69236zm80.94786 0c-12.45416-.29861-27.17689 12.73141-32.51726 51.69236h9.6646c3.29893-19.18156 28.31946-29.11806 14.83535-2.72106 40.79821-15.91118 27.45767-48.5052 8.01731-48.9713zm69.30339 0c-14.18228.34003-25.11285 17.77849-14.15061 33.36481 10.46128-6.97133 21.32378-14.68905 32.35097-23.19066-5.73219-7.38151-12.22625-10.31738-18.20036-10.17415zm-121.76807 60.1255c-2.93193 6.91781-6.27745 11.40397-9.74872 15.12332 2.82578 1.32877 5.43934 2.53421 7.76689 3.57592 1.6968-.92878 3.4038-2.08962 5.12771-3.53483.0139 2.11476.0664 4.05314.15261 5.85488 5.50451 2.36574 8.69226 3.57983 8.69226 3.57983s3.20275-1.22146 8.72944-3.59744c.0776-1.79914.11787-3.73172.11543-5.83727 1.72392 1.44521 3.43091 2.60605 5.12772 3.53483 2.32755-1.04171 4.94111-2.24715 7.76689-3.57592-3.4714-3.71974-6.81691-8.20663-9.74873-15.12332z" fill="#fcef3c" fill-rule="evenodd" stroke="#000" stroke-width="2"/><path d="m47.934028 1.0000716v7.4843888h53.378322v-7.4843888zm150.251252 0v7.4843888h53.37832v-7.4843888zm150.25125 0v7.4843888h53.37832v-7.4843888zm150.25125 0v7.4843888h53.37832v-7.4843888zm-497.6877035 123.9755984v8.70506h25.1866485v-8.70506zm572.8133235 0v8.70506h25.18665v-8.70506zm-555.276186 250.39252c.92872 2.92792 1.893527 5.82757 2.885686 8.70506h4.763825v-8.70506zm555.276186 0v8.70506h4.76383c.99216-2.87749 1.95696-5.77714 2.88569-8.70506zm-487.723771 125.19626c2.343673 2.94833 4.714723 5.84644 7.107588 8.70506h8.115133v-8.70506zm412.598151 0v8.70506h8.11513c2.39287-2.85862 4.76392-5.75673 7.10758-8.70506zm-225.37688 125.19625v8.70506h53.37832v-8.70506z" fill="#fcef3c" stroke="#000" stroke-width="2"/><use height="100%" transform="translate(150.25125)" width="100%" xlink:href="#b"/><use height="100%" transform="translate(300.5025)" width="100%" xlink:href="#b"/><use height="100%" transform="translate(0 250.39252)" width="100%" xlink:href="#b"/><use height="100%" transform="translate(150.25125 250.39252)" width="100%" xlink:href="#b"/><use height="100%" transform="translate(300.5025 250.39252)" width="100%" xlink:href="#b"/><use height="100%" transform="translate(-75.125625 125.19625)" width="100%" xlink:href="#b"/><use height="100%" transform="translate(75.125625 125.19625)" width="100%" xlink:href="#b"/><use height="100%" transform="translate(225.37688 125.19625)" width="100%" xlink:href="#b"/><use height="100%" transform="translate(375.62813 125.19625)" width="100%" xlink:href="#b"/><use height="100%" transform="translate(75.125625 375.58877)" width="100%" xlink:href="#b"/><use height="100%" transform="translate(225.37688 375.58877)" width="100%" xlink:href="#b"/></g><g stroke-width="1.002309" transform="matrix(.99769714 0 0 .99769591 0 43.063357)"><path d="m-110.84409-143.39374h221.68818v279.38325h-221.68818z" fill="#fff" stroke="#000" stroke-linejoin="round" stroke-width="2.004617"/><path d="m50.030063-115.79889v-20.55528m-100.01232 20.08731v-20.55529m148.490866 38.553698h-196.59704m196.316417-17.998988h-195.999259m172.804416 18.467252v-17.998992m-150.01848 17.531018v-17.998998m75.00923961 0v-20.55499m-22.50277161 38.553988v-17.998998m45.005544 17.998998v-17.998998m27.503388 108.461312v-17.998984m-100.01232 17.5310104v-17.9989844m100.01232-53.528398v-18.357069m-100.01232 17.889095v-18.357069m146.994207 54.354457h-192.87856m192.87856-17.998984h-193.195799m193.195799-17.998984h-194.783223m172.804416 54.551961v-17.998984m-150.01848 17.53101v-18.086019m125.0154.468264v-17.998984m25.00308 0v-17.998984m-150.01848 17.53101v-17.998984m75.00923961 35.997968v-17.998984m0-17.998984v-18.356779m-22.50277161 36.355763v-17.998984m45.005544 17.998984v-17.998984m-72.508932 35.997968v-17.998984m146.982256 35.997388h-193.999998m193.999998 144.858076h-193.999998m193.999998-18.865187h-193.999998m193.999998-17.998984h-193.999998m193.999998-17.998984h-193.999998m193.999998-17.998984h-193.999998m193.999998-17.998984h-192.87856m192.87856-17.9989848h-193.195799m193.195799-17.998984h-193.513038m171.53423 126.8590918v-18.865187m-150.01848 18.397207v-18.865181m150.01848-35.529994v17.955611zm-123.765246.00029v-17.998984m97.512012 17.998984v-17.998984m26.253234.554718v-17.998984m-150.01848 17.531011v-18.086019m0 54.083987v-17.998984m125.0154-35.61674v-17.998984m25.00308 0v-17.9989843m-150.01848 17.5310105v-17.9989841m75.00924014 35.9979689v-17.9989848m22.50277186-35.9979682v-17.998984m-45.005544 17.998984v-17.998984m22.50277214 35.9979681v-17.9989841m-22.50277214 35.9979682v-17.9989841m45.005544 17.9989841v-17.9989841m-72.508932 35.9979689v-17.9989848" fill="none" stroke="#000" stroke-linejoin="round" stroke-width="1.503463"/><path d="m56.999881 119.01172h-33.506689v16.98857h33.506689zm-5.712359-17.00003h-33.50669v16.98855h33.50669zm5.712359-16.97709h-33.506689v16.98855h33.506689zm-5.712355-17.000026h-33.506691v16.988556h33.506691zm-108.287437 50.966366h33.506689v16.98857h-33.506689zm5.71236-17.00002h33.506688v16.98857h-33.506688zm-5.71236-16.977084h33.506689v16.988554h-33.506689zm5.71236-17.000024h33.506688v16.988555h-33.506688zm51.29129338.0011 39.26540962-32.941142s3.778739 5.022479 5.115764 7.336517c1.337073 2.314116 3.824767 8.081328 3.824767 8.081328zm-.00001442-.000001-39.26540996-32.941142s-3.778739 5.022479-5.115765 7.336517c-1.337072 2.314116-3.824766 8.081328-3.824766 8.081328zm-.00001401-.000051 8.88930215-50.455121s6.1254459 1.420304 8.6381989 2.334168c2.512837.913896 8.128343 3.733954 8.128343 3.733954zm-.00005755.000042-8.889302-50.455121s-6.1254464 1.420304-8.6381994 2.334168c-2.512837.913896-8.128343 3.733954-8.128343 3.733954zm.00014654-.000091 53.52472006-19.483191s2.035331 6.678934 2.551291 9.602754c.515975 2.92392.920102 9.890164.920102 9.890164zm-.00013554 0-53.5247194-19.483191s-2.035333 6.678934-2.551292 9.602754c-.515975 2.92392-.920102 9.890164-.920102 9.890164zm.00003127.000066 28.46953233-49.3047s5.855452 3.809035 8.13148 5.717403c2.276104 1.908434 7.066797 6.985311 7.066797 6.985311zm-.000027 0-28.46953267-49.3047s-5.855453 3.809035-8.131481 5.717403c-2.276104 1.908434-7.066797 6.985311-7.066797 6.985311zm-.0000365-.000035 9.90685823-56.055987s-6.9357408-.843152-9.90685823-.843182c-2.97121747-.00003-9.90685827.811953-9.90685827.811953z" fill="#fff" stroke="#000" stroke-linejoin="round" stroke-width="2.004617"/><path d="m.01515153 32.3077c-19.66852253 0-35.63148953 15.951114-35.63148953 35.605187v68.087113h71.262879v-68.087113c0-19.654063-15.962867-35.605197-35.63138947-35.605187z"/><g fill="#fff" stroke="#313131" stroke-width="1.002309"><path d="m.07765923 32.3077c-.53126544 0-1.0683316.0082-1.59409633.03123v62.059223l1.53158863 2.030116 1.50028477-2.030116v-62.059221c-.4746584-.018759-.95841802-.031228-1.43777707-.031228zm10.53309777 1.561631v60.528822l1.500285 2.030116 1.531588-2.030116v-59.404448c-.988822-.407224-2.000746-.805881-3.031873-1.124374zm-21.222615.06247c-1.029026.32327-2.044951.712583-3.031773 1.124375v59.341981l1.531589 2.030116 1.500184-2.030116zm33.349809 6.496385v53.969971l1.500284 2.030116 1.531589-2.030116v-51.127807c-.956918-.995517-1.965642-1.962808-3.031873-2.842168zm-45.445599.12493c-1.06143.884178-2.080156 1.842375-3.031773 2.842169v51.002872l1.500185 2.030116 1.531588-2.030116z" stroke-linecap="round" stroke-linejoin="round"/><path d="m-20.332355 38.710386c-1.193347.832078-2.326187 1.717875-3.40682 2.686007h47.508653c-1.080634-.968132-2.213573-1.853929-3.40692-2.686007zm-12.783475 16.147266c-.347643.880119-.691085 1.773263-.969019 2.686005h68.199901c-.277934-.912742-.621277-1.805886-.968919-2.686005zm-2.500508 16.147265v2.686005h71.262879v-2.686005zm0 16.147264v2.686006h71.262879v-2.686006z"/></g><path d="m.01515153 32.3077c-19.66852253 0-35.63148953 15.951114-35.63148953 35.605187v68.087113h71.262879v-68.087113c0-19.654063-15.962867-35.605197-35.63138947-35.605187z" fill="none" stroke="#313131" stroke-linejoin="round" stroke-width="2.004618"/><g stroke="#000" stroke-linejoin="round" stroke-width="2.004617" transform="translate(-1403.5938 -10.125)"><path d="m1298.5938-120.76875h18l-2 14.62631h-14zm32 0h18l-2 14.62631h-14zm32 0h18l-2 14.62631h-14zm128 0h18l-2 14.62631h-14zm-32 0h18l-2 14.62631h-14zm-32 0h18l-2 14.62631h-14zm-32 0h18l-2 14.62631h-14z" fill="#fff" stroke-linecap="round" stroke-width="2.505772"/><path d="m1608.5938 141.23125-3.6633 17v21h197.3266v-21l-3.6633-17h-22l-2 17h-16l-2-17h-22l-2 17h-16l-2-17h-22l-2 17h-16l-2-17h-22l-2 17h-16l-2-17z" fill="#fff" stroke-linecap="round" stroke-width="2.505772" transform="translate(-300 -300)"/><path d="m1318.5938-154.76875h2v9h-2zm42 0h2v9h-2zm126 0h2v9h-2zm-42 0h2v9h-2zm-42 0h2v9h-2z" fill="#e20909" stroke-width="2.004617"/></g><g id="c" stroke-width="1.002309" transform="translate(0 -.125)"><path d="m-222.97389-188.6707h133.94781v25.228138h-133.94781z"/><path d="m-213-149.875-4 227h122l-4-227z" fill="#fff" stroke="#000" stroke-linecap="round" stroke-linejoin="round" stroke-width="2.505772"/><path d="m-213-148.875v5h114v-5z" stroke="#000" stroke-linejoin="round" stroke-width="2.004617"/><path d="m-231-180.875v26h150v-26h-18v13h-15v-13h-18v13h-15v-13h-18v13h-15v-13h-18v13h-15v-13z" fill="#fff" stroke="#000" stroke-linecap="round" stroke-linejoin="round" stroke-width="2.505772"/><path d="m-233-154.875v5h154v-5z" fill="#fff" stroke="#000" stroke-linecap="round" stroke-linejoin="round" stroke-width="2.004618"/><path d="m-105-148.875h18l-12 13h-12zm-120 0h18l6 13h-12zm90 0h18l-6 13h-14zm-30 0h18l-2 13h-14zm-30 0h18l2 13h-14z" fill="#fff" stroke="#000" stroke-linecap="round" stroke-linejoin="round" stroke-width="2.004618"/><path d="m-111-135.875v-10.23167m-26 10.23167v-10.23167m-38 10.23167v-10.23167m-26 10.23167v-10.23167" stroke="#000" stroke-linejoin="round" stroke-width="2.004618"/><path d="m-225 136.125 8-59h122l8 59z" fill="#fff" stroke="#000" stroke-linecap="round" stroke-linejoin="round" stroke-width="2.505772"/><path d="m-199.7969 131.125v-18m14 23v-5m-14-36v-18m14 36v-18m-28.2031 18v-18m14.2031-36v-18m14 36v-18m-14-36v-18m14 36v-18m-14-36v-18m0-18v-18m0-18v-18m14 108v-18m0-18v-18m0-18v-18m0-18v-18m-14 0v-23m-14.2031 280v-5m116 5v-5m0-18v-18m-74 36v-18m59.7969 18v-18m-27.7969 18v-18m13.7969 23v-5m-45.7969-36v-18m59.7969 18v-18m-27.7969 18v-18m13.7969 36v-18m-29.7969 18v-18m-16-36v-18m59.7969 18v-18m-27.7969 18v-18m13.7969 36v-18m-29.7969 18v-18m-16-36v-18m59.7969 18v-18m-27.7969 18v-18m13.7969 36v-18m-45.7969-36v-18m0-18v-18m0-18v-18m59.7969 90v-18m-27.7969 18v-18m27.7969-18v-18m-27.7969 18v-18m27.7969-18v-18m-27.7969 18v-18m13.7969 108v-18m-29.7969 18v-18m29.7969-18v-18m-29.7969 18v-18m29.7969-18v-18m-45.5938-36v-23m45.5938 41v-18m14 0v-23m-28 23v-23m-15.7969 41v-18m0 257v-5m-68.322 0 136.6292-.1095m-131.7479-35.8905 126.8655-.11744m-129.3062 18.11744 131.7474-.11347m-125.9145-53.88653 120.731-.017m-120.731-17.983 120.4141-.0049m-120.4141-17.9951 120.0968-.01018m-119.4624-17.98982 119.1454-.0024m-119.1454-17.9976 118.8283.0053m-118.5111-18.0053 118.1941.01746m-117.8769-18.01746 117.5597.01434m-116.3821-72.01434h114.6021m-114.8282 54 116.291.01123m-116.291-18.01123 115.9738.01246m-115.9738-18.01246h114.8282" fill="none" stroke="#000" stroke-linejoin="round" stroke-width="1.503463"/><path d="m-161 4.625h5 5v37h-10zm0-108h5 5v37h-10z" stroke="#000" stroke-linejoin="round" stroke-width="2.004617"/><path d="m-62.675502-180.875-43.052598-24.85642-50.2719-112.73489-50.2719 112.73489-43.0526 24.85642z" fill="#fff" stroke="#000" stroke-linecap="round" stroke-linejoin="round" stroke-width="2.505772"/></g><use height="100%" stroke-width="1.002309" transform="translate(312)" width="100%" xlink:href="#c"/></g><path d="m-76-98.927992h152v65.846074c0 72.901931-76.00000198 101.47938-76.00000198 101.47938s-75.99999802-28.577449-75.99999802-101.47938z" fill="#e20909" stroke="#000" stroke-width="3"/><g stroke="#000" stroke-linecap="round" stroke-linejoin="round" stroke-width="1.501837" transform="matrix(.99877637 0 0 .99877707 2.573228 .041119)"><path d="m-32.147636-74.932605c11.709469 0 21.216273 9.479262 21.216273 21.273799 0 11.794534-9.506804 21.3002-21.216273 21.3002-11.709578 0-21.243654-9.505666-21.243654-21.3002 0-11.794537 9.534076-21.273799 21.243654-21.273799z" fill="#fcef3c"/><path d="m-49.326179 3.2202928s-6.33508 6.8783232-9.50262 10.3174842c-1.251267 1.358565-.294172 5.349882 1.560455 3.335854 2.730278-2.964938 8.190834-8.8948141 8.190834-8.8948141z" fill="#fcef3c"/><path d="m-48.644597 13.910429c2.836416 2.265947 1.507169 5.293774-.572902 8.896039-3.225175 1.204729-4.413028-1.925587-5.41774-3.516997 2.09402-2.333994 3.863607-2.095139 5.990642-5.379042z" fill="#fff" fill-rule="evenodd"/><path d="m-47.228847 13.085558c2.836415 2.265926 1.507168 5.293764-.572903 8.896028-3.225175 1.204729-4.413027-1.925597-5.417639-3.516996 2.09392-2.333994 3.863506-2.09514 5.990542-5.379032z" fill="#fff" fill-rule="evenodd"/><path d="m-37.210023-74.616174-4.635305 3.946279c2.310377-.6796 4.692304-.658618 5.195162 1.120093l4.503443 15.921594-.01004.0029.01004.0029v.01004-.0082l15.927079 4.50132c1.77932.502751 1.800394 2.884156 1.120617 5.193758l3.948102-4.633258-1.375508-5.066373 1.375508-5.040895-3.948102-4.633259c.679777 2.309581.658703 4.664625-1.120617 5.167373l-15.924369 4.501319 4.50254-15.91886c.502858-1.778711 2.859295-1.799696 5.169672-1.120093l-4.634501-3.946283-5.04313 1.374872zm5.067816 21.003437-4.507959 15.937061c-.502858 1.778711-2.884785 1.799699-5.195162 1.1201l4.635305 3.946275 5.067816-1.374872 5.04323 1.374872 4.634502-3.946275c-2.310477.679599-4.666815.658611-5.169773-1.1201zm-.01305-.01272-15.942532-4.506783c-1.77932-.502743-1.800394-2.857787-1.120618-5.167372l-3.947198 4.633259 1.375609 5.040896-1.375609 5.066376 3.947198 4.633258c-.679776-2.309606-.658702-4.691007 1.120618-5.193758z" fill="#fcef3c"/><path d="m-32.14873-76.4344c-12.620218 0-22.850883 10.242915-22.850883 22.776648 0 12.533731 10.230665 22.800937 22.850883 22.800937 12.620118 0 22.8256951-10.267206 22.8256951-22.800937 0-12.533733-10.2055771-22.776648-22.8256951-22.776648zm0 3.205238c10.772359 0 19.518333 8.720705 19.518333 19.57141 0 10.850702-8.745974 19.595698-19.518333 19.595698-10.772459 0-19.543521-8.744996-19.543521-19.595698 0-10.850705 8.771062-19.57141 19.543521-19.57141z" fill="#fcef3c"/><g fill="#fff"><path d="m36.322033 25.61779c-1.928341 2.493742-2.919205 3.78983-1.684288 5.510079 3.906657.827622 11.58239-1.081518 9.304125-3.868765-3.60159.415742-6.30183.01405-7.619837-1.641314z" fill-rule="evenodd"/><path d="m37.531661 27.08056c-1.928341 2.493752-2.919205 3.78983-1.684187 5.51008 3.906556.827631 11.475617-1.987986 9.197352-4.775233-3.60159.415743-6.195157.920536-7.513165-.734847z" fill-rule="evenodd"/><path d="m-31.518426 27.78199c-.630404 1.324447-1.867429 2.567319-1.267732 4.990274 2.537972 1.34246 4.824867-.328317 7.430175-1.338396 2.324024-1.432544 2.296729-1.212345 1.256994-2.524007-1.55313 1.01908-2.937971.785765-4.108764.763136-1.367681-.02649-2.472644-.703538-3.310673-1.891007z" fill-rule="evenodd"/><path d="m-29.923952 29.260084c-.630404 1.324447-1.342594 1.8261-1.209428 4.693738 2.551018.885554 4.096621-.256496 6.544077-2.093885 2.324024-1.432555 2.106865-2.203287 1.06713-3.51494-3.248958 1.752663-4.181718 1.150951-6.401779.915087z" fill-rule="evenodd"/><path d="m23.443612-11.339176c-1.112188 2.5588861 1.598388 7.4848934-.815551 13.8354193-1.551624.453996-1.078069 8.5371547-2.05388 10.8256597-3.294317 4.39656-5.224765 8.502956-5.72963 12.439518.757849 2.679953-1.378318 1.998984-3.047955 2.418791-.793374 1.905316-4.4422295.795499-7.0094039-1.727706-.5712971-1.969541.1382834-2.998365.7747083-3.673414.6205694-.658209 1.7565406-.980073 2.4970292-1.509714 6.9195894-6.218494 6.1006264-11.3225758 6.2419204-15.1174634-.847864-1.2301777-1.876259-1.5988256-1.89382-4.7511986-1.969284-1.61239298-3.6987303-8.0900129-3.7499092-12.098178m-34.2976988 7.3982184c-1.56457 1.491892-10.830261 4.0938722-11.140446.9281526-4.878855-1.4361071-16.075397 1.75710854-11.874912 11.4518978.361564.8343749 1.369487 1.9130832 1.960754 2.8497562 1.549617 1.42276 1.119313 2.905912-.951627 2.540886-1.532356 3.032625-3.472439 3.868104-5.373785 4.911971-1.443045.140601-2.642137-.189573-1.563165-2.260207.762365-2.633309-1.264521-2.164321-.367485-6.547102 1.921417-6.0365392.694428-5.9982555 1.691413-9.84461295 1.503155-3.58508465 2.452474-6.78191295 6.58211-8.89243115 5.946388-.1539208 9.497502-5.0790339 11.721778-4.7861819-.342498-.840299 1.253482-3.086469 3.949607-2.362878 2.310878-1.240939 2.984232-2.124461 4.286986-.350665" fill-rule="evenodd"/></g><path d="m34.955154-87.781173-10.593031 11.230258-21.1938905.668848c-2.4877731.07851-3.7367089 2.969986-1.5682824 2.909417l19.9020739-.555907-70.828203 76.7488498c-.592773 2.0655059-.02609 3.3088095.248669 4.7585241l75.486087-81.6878179 23.439641-.638445c2.548365-.06941 2.423009-2.949732.759455-2.908812l-21.339098.524903 10.048227-10.649267c2.601027-2.756609-.477176-4.518694-4.361648-.400551z" fill="#fcef3c"/><path d="m-40.736752-53.006318c-2.078667 7.644086-7.546682 25.362675-2.76326 32.631871 3.022366 4.592859 5.148799 12.2661468 9.444617 15.703993 4.023967 3.2203706 11.83698 4.67106867 16.987887 4.95391681 6.477143.35567256 19.3521516.4652855 27.407311-3.38638051 11.748471-5.6176234 20.563386-5.2826974 18.663946-4.6131563l11.162422-12.861712c-.644352-1.899188-2.098335-3.798369-3.435008-5.697557.641743.762805 4.059692 5.607903 4.483775 8.470639.258001 1.741857 4.745389 1.619929 4.293007-.95176.405919-1.259035.313295-2.452337-.08128-3.544035.16317-1.919278-.700649-2.90464-1.456592-3.739051-.36036-.935158-.584042-1.899583-1.938075-2.577541-.47205-1.090111-.546812-2.380686-2.655182-2.50183-1.064622-2.020843-3.528034-2.799323-5.221353-3.817414-1.575107-1.648509-5.676243-1.873818-8.204381-2.189042-4.487388-.559511-10.576574-.290253-15.073194.190354-3.2815716.350741-7.4971085 1.852021-10.78008522 2.189035-6.66198918.68388-18.47960178.285529-18.47960178.285529-3.161753-.01446-10.584401-7.114391-6.980001-9.51699" fill="#fff"/><path d="m-22.705719-61.853007c4.902338 2.47062 5.825064 5.12424 8.86459 7.411872 1.284992.967097-.430907 1.291884-.928647 1.263385-3.404501-.194933-4.545189.09816-6.75391.168449" fill="#fff"/><path d="m-33.630108-48.184786c2.918402 2.589774 5.93866 5.26506 9.441004 3.800681 1.478368.96592 2.20561.927782 2.974398.902491 1.028395.170128 3.394266-.553101 2.363763-1.198438-.816956-.293058-3.687591-1.025834-4.279761-3.126121.437028 1.847153 3.506056 3.169555 5.10043 3.185265 1.321419.01302 1.725733-.986595 2.440431-2.41719.349322-.699408.136076-1.597041-.345507-2.240337-1.345805-1.797832-2.654279-3.627923-2.839226-6.833694-.41194-2.124808-1.378519-3.765581-2.418354-5.342339-1.59909-1.809617-3.715991-3.767829-7.082259-3.44667-3.342284.318882-6.141971.07189-10.018824 3.619009-5.672028 5.189452-4.492204 12.125479-5.099025 18.612017" fill="#fff"/><path d="m-35.960254-58.736655c-.652883.103773-1.491113-.04138-1.604008 1.431845-.262517 3.424674.47757 7.056461-.590966 10.275546-.722224 2.175612-.315904 4.422794-1.604107 6.653845-.519215.899199-1.22709 1.581702-1.772898-.08423-1.151224-3.513616-2.725929-7.25614-2.646351-10.696681.07928-3.417381 2.673345-5.628006 4.841425-7.917225.922023-.973549 1.193873-1.554515 1.435217-2.189875" fill="#fff"/><path d="m-29.16821-55.786356c-.429301 1.087226-2.464616 1.829239-2.448861-1.078483" fill="none"/><path d="m-16.455469-46.834371c-1.090311.473788-1.834413-1.235415-2.437621-2.052318l-.622376.795411m-20.891533-8.32221c-.537881 1.326618-1.385745 2.390502-.958351 4.633486.407425 2.138211.355443 4.529739.442347 6.839918m8.351897-12.449197c1.855386.884568 3.540075.620778 3.806005 2.673774" fill="none"/><path d="m-31.557362-11.893445s.07024 1.593091.259005 3.0716933c-1.49904 2.06237-.22318 3.3479813.490916 4.1713679.192674 2.0027868.305468 3.6109751.302257 4.10105722-.09032 4.34407628 1.511584 3.33206068 1.448062 6.80887718-.286 2.9882195-.533565 4.9318994.568487 7.1010984 1.328645 4.475395-.365879 8.475268-2.124226 12.725808-.326642.789568-1.101149 1.301416-1.41324 2.112942.560459.539504 1.366878.766006 1.903655 1.318395 2.343593-.210565 4.656478.716293 6.023457-.607933 2.270939-1.882055.686098-1.899095 1.857493-4.320013 1.86783-4.776486-2.613436-6.020713-1.301851-11.441471 1.036223-1.248973.91821-2.173383.6007-3.008209.240541-2.7938407-.160661-5.8942823 1.047362-6.9711243 1.478067.26047.571899-1.070831.5437-3.59050357.324836-.86254333.188559-1.50835953.06222-2.15864133 1.603204-.4810405 2.011331-1.7196376 1.539783-3.2449062m40.131392-8.6335156c-.663519 4.110197 4.813327 11.40846 6.958727 13.3018847.640539 2.243558 1.033011 2.729867 2.689502 3.8761616.775611 1.7472642.28319 2.4216 2.806009 4.0494169 3.577707 5.5211588 5.920598 12.2979338 4.675846 17.3717388-1.919711 2.3529-1.853479 3.814386-.378523 4.443082 1.746305.744411 5.605596.297038 7.911859-.768354 2.128741-1.467788.564874-2.028858.328849-2.777112-.434719-1.49129-.257901-1.891889.329352-2.514063 1.347209-2.075581-2.182831-3.382918-2.430497-4.959857-.630807-2.529066-.856195-1.924825-1.292219-4.721796-.230506-2.684248.840438-4.5379438-1.963665-6.764663-2.805708-3.9723074-.435723-6.15535401-.567785-8.1548895.825385-3.3151215.384344-2.7073583.175213-4.9824665.535773-3.815569.362266-2.3355895.322226-4.487142 2.170086-3.422515.62067-2.724421.266331-5.48913 1.429096-2.141595.557047-2.226291-.385347-4.421107" fill="#fff" fill-rule="evenodd"/><path d="m4.5855874 24.065416c-.9111854 2.197216-2.6432404 4.594782-1.385644 6.837999.9206183-.051179 1.7988886-.118524 2.6254782-.210686l1.2292974-5.122114c-.8828864-.434629-1.7456023-.967109-2.4691316-1.505199z" fill="#fff" fill-rule="evenodd"/><path d="m6.4000303 24.796801c-.9111853 2.197227-2.6432403 4.594773-1.3856439 6.837999 5.9998746-.333545 10.2005596-1.3539 10.0531446-5.45584l-1.047663.0864c-.825486 2.240266-5.0798583.420379-7.6198377-1.468551z" fill="#fff" fill-rule="evenodd"/><path d="m24.635579-72.490826c-.515803-1.940565-1.257095-2.043067-2.164065-2.976945-.770092.01805-2.81173 1.977373-2.504054 2.79959 1.894824-.414981 2.426984 1.594885 3.506558 3.068863.351027-.566902.739987-1.764528 1.161561-2.891508zm-13.483336 15.899812c-.692019-.854971-1.5059643-1.842635-2.8896013-2.062834-1.2014296.16864.1060193-2.27627 2.2447473-2.960956.991968.709827 2.138777 1.432896 3.115993 3.600456-.690514.402502-1.305363.962813-2.471139 1.423334z" fill="#fff"/><path d="m50.822825-29.837491c-5.996061-3.960054-10.576373-13.926839-17.058132-15.837251-4.698827-1.384927-17.342527-3.106869-22.61245-10.916272 6.538859-2.975539 12.669491-12.311176 13.483336-15.899812 5.295311 11.476631 16.746744 13.92469 20.804228 15.152608 5.181213 1.567964 9.343965 9.311158 13.809777 12.252044-3.952718-.905246-7.428168-2.628608-12.165429-2.188882-.341092 6.186 2.129445 11.710461 3.73867 17.437565z" fill="#fff" fill-rule="evenodd"/><path d="m24.300909-59.175032-2.025481 2.717258c3.325325.110078 7.090287 1.4791 7.090287 1.4791l-3.979111 4.395628c.832109.832066 2.844745 1.473911 3.547702 1.473911l3.393062-3.980991c3.914786 2.881405 4.206104 3.928518 6.407098 6.251413l2.014242-3.118429c-1.548514-2.676892-1.978617-3.451927-6.071726-6.257183l2.206714-2.109828c-1.292317-.348489-2.235715-.94245-3.04645-1.425751l-2.157241 1.768594s-4.097825-1.286062-7.379096-1.193722z" fill="#e20909"/></g><path d="m-298.5-298.50003h597v258.5433c0 286.24794-298.5 398.45673-298.5 398.45673s-298.5-112.20879-298.5-398.45673z" fill="url(#a)"/><path d="m-298.5-298.50001h597v258.502973c0 286.203287-298.5 398.394577-298.5 398.394577s-298.5-112.19129-298.5-398.394577z" fill="none" stroke="#000" stroke-width="3"/></svg>